# xmcd CD database file
#
# Track frame offsets:
#	150
#	9055
#	41657
#	53767
#	80080
#	91947
#	117090
#	134542
#	156802
#	177097
#	203472
#
# Disc length: 3163 seconds
#
# Revision: 2
# Processed by: cddbd v1.4PL0 Copyright (c) Steve Scherf et al.
# Submitted via: CDex 1.40Beta9
#
DISCID=7e0c590b
DTITLE=Muddy Waters - Paris, 1972
DYEAR=1997
DGENRE=Blues
TTITLE0=Introduction
TTITLE1=Clouds In My Heart
TTITLE2=Lovin' Man
TTITLE3=County Jail
TTITLE4=Hoochie Coochie Man
TTITLE5=Blow Wind Blow
TTITLE6=Honey Bee
TTITLE7=Walking Thru The Park
TTITLE8=Rollin' 'N' Tumblin'
TTITLE9=Walkin' Blues
TTITLE10=Got My Mojo Workin'
EXTD=YEAR: 1997 ID3G: 0
EXTT0=
EXTT1=
EXTT2=
EXTT3=
EXTT4=
EXTT5=
EXTT6=
EXTT7=
EXTT8=
EXTT9=
EXTT10=
PLAYORDER=
